<svg xmlns="http://www.w3.org/2000/svg" viewBox="0 0 1200 1200" width="1200" height="1200">
<defs>
  <radialGradient id="g" cx="50%" cy="45%" r="75%"><stop offset="0" stop-color="#15191b"/><stop offset="1" stop-color="#0d0f10"/></radialGradient>
  <radialGradient id="v" cx="50%" cy="50%" r="70%"><stop offset=".55" stop-color="#000" stop-opacity="0"/><stop offset="1" stop-color="#000" stop-opacity=".55"/></radialGradient>
</defs>
<rect width="100%" height="100%" fill="url(#g)"/>
<g>
  <circle cx="600" cy="600" r="161" fill="none" stroke="#ece8e1" stroke-opacity="0.45" stroke-width="3.5" stroke-linecap="round" stroke-dasharray="0 14"/>
  <circle cx="600" cy="600" r="310.5" fill="none" stroke="#3fe0d0" stroke-opacity="0.55" stroke-width="3" stroke-linecap="round" stroke-dasharray="0 12"/>
  <path d="M600 549.4 Q600 600 650.6 600 Q600 600 600 650.6 Q600 600 549.4 600 Q600 600 600 549.4Z" fill="#3fe0d0"/>
  <g>
  <path id="shm0db" d="M659.8 376.9 A230 230 0 1 1 485 399.9" fill="none"/>
  <use href="#shm0db" stroke="#ece8e1" stroke-width="55.199999999999996" stroke-linecap="round"/>
  <use href="#shm0db" stroke="#15191b" stroke-width="49.199999999999996" stroke-linecap="round"/>
  <use href="#shm0db" stroke="#ece8e1" stroke-opacity=".55" stroke-width="30.36" stroke-dasharray="1.6 10.1"/>
  <use href="#shm0db" stroke="#3fe0d0" stroke-opacity=".7" stroke-width="2"/>
  <g transform="translate(659.8 376.9) rotate(15) scale(0.9199999999999999)">
    <path d="M-6 -6 L-100 0 M-100 0 L-118 -10 M-100 0 L-118 10" fill="none" stroke="#3fe0d0" stroke-width="3" stroke-linecap="round" transform="translate(-4 0)"/>
    <path d="M6 -30 C-26 -38 -62 -24 -80 0 C-62 24 -26 38 6 30 Z" fill="#15191b" stroke="#ece8e1" stroke-width="3"/>
    <path d="M-10 -16 C-30 -18 -48 -12 -62 0" fill="none" stroke="#ece8e1" stroke-opacity=".5" stroke-width="2"/>
    <ellipse cx="-44" cy="-12" rx="7" ry="4.5" fill="#3fe0d0"/>
    <ellipse cx="-44" cy="12" rx="7" ry="4.5" fill="#3fe0d0"/>
  </g>
</g>
</g>
<rect width="100%" height="100%" fill="url(#v)"/>
<text x="600" y="1152" text-anchor="middle" font-family="Georgia, serif" font-style="italic" font-size="28.571428571428573" fill="rgba(236,232,225,.35)" letter-spacing="2">Trabalho 09</text>
</svg>