<svg xmlns="http://www.w3.org/2000/svg" viewBox="0 0 1200 1200" width="1200" height="1200">
<defs>
  <radialGradient id="g" cx="50%" cy="45%" r="75%"><stop offset="0" stop-color="#15191b"/><stop offset="1" stop-color="#0d0f10"/></radialGradient>
  <radialGradient id="v" cx="50%" cy="50%" r="70%"><stop offset=".55" stop-color="#000" stop-opacity="0"/><stop offset="1" stop-color="#000" stop-opacity=".55"/></radialGradient>
</defs>
<rect width="100%" height="100%" fill="url(#g)"/>
<g fill="none" stroke="#ece8e1" stroke-width="3" stroke-linejoin="round">
  <path d="M758.9 568.4 L870 600 L758.9 631.6 M758.9 631.6 L800.9 683.2 L734.7 690 M734.7 690 L790.9 790.9 L690 734.7 M690 734.7 L683.2 800.9 L631.6 758.9 M631.6 758.9 L600 870 L568.4 758.9 M568.4 758.9 L516.8 800.9 L510 734.7 M510 734.7 L409.1 790.9 L465.3 690 M465.3 690 L399.1 683.2 L441.1 631.6 M441.1 631.6 L330 600 L441.1 568.4 M441.1 568.4 L399.1 516.8 L465.3 510 M465.3 510 L409.1 409.1 L510 465.3 M510 465.3 L516.8 399.1 L568.4 441.1 M568.4 441.1 L600 330 L631.6 441.1 M631.6 441.1 L683.2 399.1 L690 465.3 M690 465.3 L790.9 409.1 L734.7 510 M734.7 510 L800.9 516.8 L758.9 568.4"/>
  <circle cx="600" cy="600" r="150"/>
  <circle cx="600" cy="600" r="129" fill="none" stroke="#ece8e1" stroke-opacity="0.5" stroke-width="3.5" stroke-linecap="round" stroke-dasharray="0 12"/>
  <circle cx="600" cy="600" r="105" fill="none" stroke="#ece8e1" stroke-opacity="0.35" stroke-width="3" stroke-linecap="round" stroke-dasharray="0 10"/>
  <g>
  <path d="M618 532.5 A67.5 67.5 0 1 0 618 667.5 A37.125 67.5 0 0 1 618 532.5 Z" fill="none" stroke="#ece8e1" stroke-width="3"/>
  <circle cx="596.4" cy="600" r="48.6" fill="none" stroke="#ece8e1" stroke-opacity="0.45" stroke-width="3" stroke-linecap="round" stroke-dasharray="0 12"/>
  <path d="M665.25 554.775 Q665.25 562.875 673.35 562.875 Q665.25 562.875 665.25 570.975 Q665.25 562.875 657.15 562.875 Q665.25 562.875 665.25 554.775Z" fill="#3fe0d0"/>
  <path d="M682.125 608.775 Q682.125 613.5 686.85 613.5 Q682.125 613.5 682.125 618.225 Q682.125 613.5 677.4 613.5 Q682.125 613.5 682.125 608.775Z" fill="#ece8e1"/>
  <path d="M651.75 647.25 Q651.75 650.625 655.125 650.625 Q651.75 650.625 651.75 654 Q651.75 650.625 648.375 650.625 Q651.75 650.625 651.75 647.25Z" fill="#ece8e1"/>
</g>
</g>
<rect width="100%" height="100%" fill="url(#v)"/>
<text x="600" y="1152" text-anchor="middle" font-family="Georgia, serif" font-style="italic" font-size="28.571428571428573" fill="rgba(236,232,225,.35)" letter-spacing="2">Trabalho 08</text>
</svg>